<svg id="standard_logo" xmlns="http://www.w3.org/2000/svg" viewBox="0 0 98 98">
  <defs>
    <style>
      .cls-1 {
        fill: #3aafa9;
      }

      .cls-2 {
        fill: #fff;
      }
    </style>
  </defs>
  <g id="Ebene_1" data-name="Ebene 1">
    <circle id="Ellipse_23" data-name="Ellipse 23" class="cls-1" cx="49" cy="49" r="49"/>
    <path id="Pfad_101" data-name="Pfad 101" class="cls-2" d="M74.58,36.69l4.84,4.84a4.75,4.75,0,0,1,0,6.74l-32,32a4.77,4.77,0,0,1-6.74,0l-4.85-4.85a11.62,11.62,0,0,1,0-16.44l3.52-3.52-2.92-2.92a3.33,3.33,0,0,0-4.72,0l-4.09,4.08a3.31,3.31,0,0,1-4.71,0L19.24,53a4.77,4.77,0,0,1,0-6.74L45.38,20.1a4.77,4.77,0,0,1,6.74,0l3.66,3.66a3.34,3.34,0,0,1,0,4.72l-4.09,4.09a3.33,3.33,0,0,0,0,4.71l2.93,2.93,3.52-3.52A11.62,11.62,0,0,1,74.58,36.69Z"/>
    <path id="Pfad_102" data-name="Pfad 102" class="cls-1" d="M89.65,96.83l-15.4-5a3.9,3.9,0,0,1-1.46-6.55L83,75.64a3.91,3.91,0,0,1,6.35,1.55l5.16,14.63a3.9,3.9,0,0,1-4.86,5.01Z"/>
  </g>
</svg>
